# xmcd
#
# Track frame offsets:
#	150
#	14260
#	28642
#	43907
#	63022
#	77145
#	94850
#	109405
#	125182
#	141202
#	151875
#	167697
#	180225
#	192835
#	208300
#	224120
#	242840
#	258365
#
# Disc length: 3679 seconds
#
# Revision: 0
# Processed by: cddbd v1.4PL0 Copyright (c) Steve Scherf et al.
# Submitted via: EasyCDDAExtractor 4.6.9.1
#
DISCID=070e5d12
DTITLE=Mats Rådberg and Rankarna - 100%. När natten kommer.
DYEAR=2002
DGENRE=Country
TTITLE0=Early morning rain
TTITLE1=Vita duvan
TTITLE2=Peta in en pinne i brasan
TTITLE3=Det är inte lätt att vara ödmjuk
TTITLE4=Du kan alltid lita på polkarna över 35
TTITLE5=Heart full of rain
TTITLE6=Honky tonk heart
TTITLE7=When your heartache is over
TTITLE8=Gör det igen
TTITLE9=The race is on
TTITLE10=On the road to tomorrow
TTITLE11=Säg aldrig nej till en grabb med gitarr
TTITLE12=Ruby don't you take your love to town
TTITLE13=If tomorrow never comes
TTITLE14=Hotel Coupe De Ville
TTITLE15=Bland enkla människor
TTITLE16=Achy breaky heart
TTITLE17=Crocodile shoes
EXTD=36 av Mats Rådberg and Rankarnas bästa låtar på en dubbel-CD! \n
EXTT0=
EXTT1=
EXTT2=
EXTT3=
EXTT4=
EXTT5=
EXTT6=
EXTT7=
EXTT8=
EXTT9=
EXTT10=
EXTT11=
EXTT12=
EXTT13=
EXTT14=
EXTT15=
EXTT16=
EXTT17=
PLAYORDER=
